Coordinates
version=1
nRows=7
nColumns=42
inDegrees=yes

Units are S.I. units (second, meters, Newtons, ...)
If the header above contains a line with 'inDegrees', this indicates whether rotational values are in degrees (yes) or radians (no).

endheader
time	pelvis_tilt	pelvis_list	pelvis_rotation	pelvis_tx	pelvis_ty	pelvis_tz	hip_flexion_r	hip_adduction_r	hip_rotation_r	knee_angle_r	knee_adduction_r	knee_angle_r_beta	ankle_angle_r	subtalar_angle_r	mtp_angle_r	hip_flexion_l	hip_adduction_l	hip_rotation_l	knee_angle_l	knee_adduction_l	knee_angle_l_beta	ankle_angle_l	subtalar_angle_l	mtp_angle_l	lumbar_extension	lumbar_bending	lumbar_rotation	arm_flex_r	arm_add_r	arm_rot_r	elbow_flex_r	pro_sup_r	wrist_flex_r	wrist_dev_r	arm_flex_l	arm_add_l	arm_rot_l	elbow_flex_l	pro_sup_l	wrist_flex_l	wrist_dev_l
      1.92000000	     11.71034721	      1.19116149	      3.37149002	      0.10879276	      0.92717395	     -0.33261771	      4.57950907	     -3.73611575	     -9.98544868	     74.18023907	     -3.16276627	      1.29468941	     17.18294664	     -6.82945964	     -7.51145486	      3.62695205	      6.88203865	    -13.45896506	     30.27870582	    -12.39680917	      0.52846311	     18.99264830	     12.87268129	     -7.51145486	    -34.53549675	     -1.90001296	     -1.81136770	      7.17845659	    -11.79477019	      4.07652577	     33.44822869	     90.00000001	      0.00000000	      0.00000000	     14.84219482	    -13.04213986	    -12.49527063	     36.30970385	     90.00000001	      0.00000000	      0.00000000
      1.93000000	     11.65659486	      1.31966608	      3.36589169	      0.11673454	      0.92742305	     -0.33330387	      6.04678891	     -3.74598339	     -9.63609923	     74.05508927	     -3.14837211	      1.29250514	     17.81037791	     -7.28217001	     -7.51118191	      2.87777849	      7.11999048	    -13.43955952	     29.79915240	    -12.47368446	      0.52009332	     19.36108193	     13.19917657	     -7.51118191	    -34.56501629	     -2.00416115	     -1.96412334	      6.22352246	    -11.39871008	      3.70632679	     32.79314743	     90.00000001	      0.00000000	      0.00000000	     15.94878533	    -13.44359446	    -12.22476326	     36.55548104	     90.00000001	      0.00000000	      0.00000000
      1.94000000	     11.59055739	      1.34953360	      3.28938685	      0.12474586	      0.92761796	     -0.33381983	      7.45068781	     -3.54053531	     -8.85914212	     73.56568720	     -2.88054681	      1.28396346	     18.05109653	     -7.98238880	     -7.51040255	      2.22349462	      7.12478237	    -14.00692299	     29.40375886	    -12.62274578	      0.51319240	     19.84151050	     14.29390052	     -7.51040255	    -34.53679380	     -2.01458250	     -1.89811384	      5.44103266	    -10.72109422	      2.02694457	     31.60230805	     90.00000001	      0.00000000	      0.00000000	     17.13735398	    -13.80101398	    -11.39446617	     36.47221096	     90.00000001	      0.00000000	      0.00000000
      1.95000000	     11.49673163	      1.40572720	      3.28833439	      0.13271239	      0.92767613	     -0.33431355	      8.85654810	     -3.42285746	     -8.68964861	     72.87889701	     -3.02223462	      1.27197671	     18.21872780	     -7.79235413	     -7.51028074	      1.62525307	      7.18072924	    -14.14427376	     29.18038632	    -12.61245320	      0.50929382	     19.96106778	     14.22578775	     -7.51028074	    -34.51232939	     -2.04641164	     -2.10846646	      4.43222010	    -10.38422369	      2.01575451	     31.38318096	     90.00000001	      0.00000000	      0.00000000	     18.03324124	    -14.24122444	    -11.39434199	     36.95288256	     90.00000001	      0.00000000	      0.00000000
      1.96000000	     11.57167920	      1.46416016	      3.19237239	      0.14104989	      0.92780386	     -0.33471043	      9.99563348	     -3.25953457	     -8.79369808	     71.95649863	     -3.49190057	      1.25587782	     18.84493729	     -8.06281448	     -7.50922298	      0.72567879	      7.22314720	    -14.82394252	     28.59554352	    -12.85387072	      0.49908639	     20.73229698	     15.85917012	     -7.50922298	    -34.58521912	     -2.10396985	     -2.02805002	      3.57112396	     -9.79470700	      0.15221578	     30.50986576	     90.00000001	      0.00000000	      0.00000000	     19.09725147	    -14.52678311	    -10.79439717	     37.13029729	     90.00000001	      0.00000000	      0.00000000
      1.97000000	     11.53913015	      1.54404321	      3.12448956	      0.14922116	      0.92773636	     -0.33508451	     11.19941747	     -3.14648037	     -8.77195920	     70.85222070	     -3.75417040	      1.23660453	     19.22916013	     -8.00372199	     -7.50905191	     -0.02506342	      7.32794330	    -14.97458770	     28.20360155	    -12.86811068	      0.49224571	     21.01538414	     15.92037953	     -7.50905191	    -34.57255317	     -2.19132816	     -2.11991237	      2.58021695	     -9.52571298	      0.06034708	     30.19243797	     90.00000001	      0.00000000	      0.00000000	     20.00646225	    -14.84175608	    -10.74989500	     37.54113104	     90.00000001	      0.00000000	      0.00000000
      1.98000000	     11.40762329	      1.66495755	      3.12826540	      0.15731596	      0.92740983	     -0.33547249	     12.44670000	     -3.12582127	     -8.69654131	     69.60184788	     -3.82894000	      1.21478141	     19.35005000	     -7.72953819	     -7.50894853	     -0.54770629	      7.42766346	    -15.13886134	     28.07363884	    -12.82770988	      0.48997743	     21.10240519	     15.86698866	     -7.50894853	    -34.46672058	     -2.30636953	     -2.42537089	      1.64989051	     -9.20912936	      0.04987418	     30.02096318	     90.00000001	      0.00000000	      0.00000000	     20.80510685	    -15.34447405	    -10.77228419	     37.94371902	     90.00000001	      0.00000000	      0.00000000
